<svg width="73" height="73" viewBox="0 0 73 73" fill="none" xmlns="http://www.w3.org/2000/svg">
<path d="M20.44 50.6134C21.2144 50.3875 22.0468 50.4785 22.7542 50.8664C23.4615 51.2543 23.9858 51.9073 24.2116 52.6817C24.4375 53.4561 24.3465 54.2886 23.9586 54.9959C23.5707 55.7032 22.9177 56.2275 22.1433 56.4534C20.6225 56.8975 19.5275 57.3659 18.8248 57.7917C19.5488 58.2267 20.6924 58.7133 22.2802 59.1665C25.7933 60.1703 30.8212 60.8334 36.5 60.8334C42.1788 60.8334 47.2066 60.1703 50.7197 59.1665C52.3105 58.7133 53.4512 58.2267 54.1751 57.7917C53.4755 57.3659 52.3805 56.8975 50.8597 56.4534C50.0974 56.2175 49.4584 55.6917 49.0802 54.9891C48.7021 54.2865 48.6152 53.4634 48.8383 52.6973C49.0613 51.9312 49.5764 51.2835 50.2726 50.8937C50.9688 50.5038 51.7903 50.4032 52.56 50.6134C54.5918 51.2065 56.4533 51.9669 57.8829 52.9433C59.206 53.8527 60.8333 55.4375 60.8333 57.7917C60.8333 60.1733 59.1665 61.7702 57.822 62.6797C56.3681 63.6591 54.4671 64.4225 52.3896 65.0157C48.1982 66.2171 42.5833 66.9167 36.5 66.9167C30.4166 66.9167 24.8017 66.2171 20.6103 65.0157C18.5328 64.4225 16.6318 63.6591 15.1779 62.6797C13.8335 61.7672 12.1666 60.1733 12.1666 57.7917C12.1666 55.4375 13.7939 53.8527 15.117 52.9433C16.5466 51.9669 18.4081 51.2065 20.44 50.6134ZM36.5 6.08337C42.5502 6.08337 48.3527 8.48683 52.6308 12.765C56.909 17.0432 59.3125 22.8456 59.3125 28.8959C59.3125 36.7069 55.0541 43.0579 50.6437 47.5717C48.8905 49.3478 47.0065 50.9899 45.0075 52.484C43.2008 53.8406 39.0702 56.3834 39.0702 56.3834C38.2868 56.8287 37.4011 57.0628 36.5 57.0628C35.5988 57.0628 34.7132 56.8287 33.9298 56.3834C31.8798 55.1947 29.8977 53.8929 27.9924 52.484C25.9905 50.9935 24.1062 49.3512 22.3562 47.5717C17.9458 43.0579 13.6875 36.7069 13.6875 28.8959C13.6875 22.8456 16.0909 17.0432 20.3691 12.765C24.6473 8.48683 30.4497 6.08337 36.5 6.08337ZM36.5 12.1667C32.0631 12.1667 27.808 13.9292 24.6707 17.0666C21.5333 20.2039 19.7708 24.459 19.7708 28.8959C19.7708 34.4195 22.8003 39.3227 26.7058 43.3134C29.644 46.3185 32.8804 48.6059 35.1221 50.0111L36.5 50.8445L37.8778 50.0111C40.1165 48.6059 43.3559 46.3185 46.2941 43.3164C50.1996 39.3227 53.2291 34.4226 53.2291 28.8959C53.2291 24.459 51.4666 20.2039 48.3293 17.0666C45.1919 13.9292 40.9368 12.1667 36.5 12.1667ZM36.5 19.7709C37.6983 19.7709 38.8848 20.0069 39.9919 20.4655C41.099 20.924 42.105 21.5962 42.9523 22.4435C43.7996 23.2909 44.4718 24.2968 44.9304 25.4039C45.3889 26.511 45.625 27.6976 45.625 28.8959C45.625 30.0942 45.3889 31.2808 44.9304 32.3879C44.4718 33.495 43.7996 34.5009 42.9523 35.3482C42.105 36.1956 41.099 36.8677 39.9919 37.3263C38.8848 37.7848 37.6983 38.0209 36.5 38.0209C34.0799 38.0209 31.7589 37.0595 30.0476 35.3482C28.3363 33.637 27.375 31.316 27.375 28.8959C27.375 26.4758 28.3363 24.1548 30.0476 22.4435C31.7589 20.7323 34.0799 19.7709 36.5 19.7709ZM36.5 25.8542C35.6933 25.8542 34.9196 26.1747 34.3492 26.7451C33.7788 27.3155 33.4583 28.0892 33.4583 28.8959C33.4583 29.7026 33.7788 30.4762 34.3492 31.0467C34.9196 31.6171 35.6933 31.9375 36.5 31.9375C37.3067 31.9375 38.0803 31.6171 38.6507 31.0467C39.2212 30.4762 39.5416 29.7026 39.5416 28.8959C39.5416 28.0892 39.2212 27.3155 38.6507 26.7451C38.0803 26.1747 37.3067 25.8542 36.5 25.8542Z" fill="#843799"/>
</svg>
